<!-- Capybara Lagoon Sunrise - Segmented SVG -->
<svg xmlns="http://www.w3.org/2000/svg" viewBox="0 0 960 600" width="960" height="600" role="img" aria-labelledby="title desc">
  <title id="title">Capybara Lagoon Sunrise</title>
  <desc id="desc">Layered sunrise bands over a lagoon with a stylized capybara on the shore.</desc>
  <g id="region-c01" data-cell-id="c1" data-color-id="1" data-color-name="Sunrise Sky" data-color-hex="#f6bf60">
    <title>Region c1 – Color #1 (Sunrise Sky)</title>
    <path d="M0 0 L960 0 L960 80 C 820 70 680 68 540 72 C 380 78 220 86 0 80 Z"/>
  </g>
  <g id="region-c02" data-cell-id="c2" data-color-id="1" data-color-name="Sunrise Sky" data-color-hex="#f6bf60">
    <title>Region c2 – Color #1 (Sunrise Sky)</title>
    <path d="M0 80 C 200 90 360 86 540 80 C 720 74 860 76 960 80 L960 148 C 820 142 680 148 520 156 C 360 166 200 164 0 148 Z"/>
  </g>
  <g id="region-c03" data-cell-id="c3" data-color-id="2" data-color-name="Amber Drift" data-color-hex="#f4994c">
    <title>Region c3 – Color #2 (Amber Drift)</title>
    <path d="M0 148 C 160 156 320 160 520 152 C 500 176 480 198 440 212 C 320 220 160 218 0 216 Z"/>
  </g>
  <g id="region-c04" data-cell-id="c4" data-color-id="2" data-color-name="Amber Drift" data-color-hex="#f4994c">
    <title>Region c4 – Color #2 (Amber Drift)</title>
    <path d="M520 152 C 700 150 840 146 960 148 C 940 176 900 198 860 210 C 740 220 640 220 520 214 C 520 194 520 172 520 152 Z"/>
  </g>
  <g id="region-c05" data-cell-id="c5" data-color-id="3" data-color-name="Violet Ridge" data-color-hex="#9a6bb3">
    <title>Region c5 – Color #3 (Violet Ridge)</title>
    <path d="M0 216 C 120 228 220 232 320 230 C 300 248 260 268 210 278 C 150 286 80 284 0 280 Z"/>
  </g>
  <g id="region-c06" data-cell-id="c6" data-color-id="3" data-color-name="Violet Ridge" data-color-hex="#9a6bb3">
    <title>Region c6 – Color #3 (Violet Ridge)</title>
    <path d="M320 230 C 440 236 520 234 640 226 C 630 250 600 268 560 276 C 480 286 400 284 320 278 C 320 258 320 244 320 230 Z"/>
  </g>
  <g id="region-c07" data-cell-id="c7" data-color-id="3" data-color-name="Violet Ridge" data-color-hex="#9a6bb3">
    <title>Region c7 – Color #3 (Violet Ridge)</title>
    <path d="M640 226 C 760 224 860 220 960 220 C 940 240 900 260 860 272 C 780 286 700 284 640 278 C 640 256 640 240 640 226 Z"/>
  </g>
  <g id="region-c08" data-cell-id="c8" data-color-id="4" data-color-name="Forest Ridge" data-color-hex="#5d7a76">
    <title>Region c8 – Color #4 (Forest Ridge)</title>
    <path d="M0 280 C 100 292 200 300 320 292 C 300 312 260 328 210 336 C 150 344 80 344 0 340 Z"/>
  </g>
  <g id="region-c09" data-cell-id="c9" data-color-id="4" data-color-name="Forest Ridge" data-color-hex="#5d7a76">
    <title>Region c9 – Color #4 (Forest Ridge)</title>
    <path d="M320 292 C 440 298 540 300 640 298 C 620 318 580 332 540 340 C 460 348 380 346 320 340 C 320 320 320 306 320 292 Z"/>
  </g>
  <g id="region-c10" data-cell-id="c10" data-color-id="4" data-color-name="Forest Ridge" data-color-hex="#5d7a76">
    <title>Region c10 – Color #4 (Forest Ridge)</title>
    <path d="M640 298 C 760 300 860 300 960 300 C 940 320 900 332 860 340 C 780 348 700 348 640 340 C 640 320 640 308 640 298 Z"/>
  </g>
  <g id="region-c11" data-cell-id="c11" data-color-id="5" data-color-name="Lagoon Light" data-color-hex="#76c7d6">
    <title>Region c11 – Color #5 (Lagoon Light)</title>
    <path d="M0 340 C 120 344 220 346 320 344 C 300 350 300 352 320 352 C 200 356 120 354 0 352 C 0 348 0 344 0 340 Z"/>
  </g>
  <g id="region-c12" data-cell-id="c12" data-color-id="5" data-color-name="Lagoon Light" data-color-hex="#76c7d6">
    <title>Region c12 – Color #5 (Lagoon Light)</title>
    <path d="M320 344 C 440 346 540 344 640 342 C 640 346 640 350 640 352 C 520 356 420 356 320 352 C 320 348 320 346 320 344 Z"/>
  </g>
  <g id="region-c13" data-cell-id="c13" data-color-id="5" data-color-name="Lagoon Light" data-color-hex="#76c7d6">
    <title>Region c13 – Color #5 (Lagoon Light)</title>
    <path d="M640 342 C 760 340 860 338 960 340 C 960 344 960 348 960 352 C 840 354 740 354 640 352 C 640 348 640 344 640 342 Z"/>
  </g>
  <g id="region-c14" data-cell-id="c14" data-color-id="5" data-color-name="Lagoon Light" data-color-hex="#76c7d6">
    <title>Region c14 – Color #5 (Lagoon Light)</title>
    <path d="M0 352 C 120 356 220 356 320 352 C 310 364 310 372 320 376 C 200 382 120 380 0 376 C 0 364 0 358 0 352 Z"/>
  </g>
  <g id="region-c15" data-cell-id="c15" data-color-id="5" data-color-name="Lagoon Light" data-color-hex="#76c7d6">
    <title>Region c15 – Color #5 (Lagoon Light)</title>
    <path d="M320 352 C 440 354 540 352 640 352 C 650 362 650 370 640 376 C 520 382 420 382 320 376 C 320 366 320 360 320 352 Z"/>
  </g>
  <g id="region-c16" data-cell-id="c16" data-color-id="5" data-color-name="Lagoon Light" data-color-hex="#76c7d6">
    <title>Region c16 – Color #5 (Lagoon Light)</title>
    <path d="M640 352 C 760 352 860 350 960 352 C 960 362 960 372 960 376 C 840 380 740 380 640 376 C 640 366 640 358 640 352 Z"/>
  </g>
  <g id="region-c17" data-cell-id="c17" data-color-id="6" data-color-name="Lagoon Depth" data-color-hex="#1c6f8c">
    <title>Region c17 – Color #6 (Lagoon Depth)</title>
    <path d="M0 376 C 160 382 320 388 480 384 C 480 394 480 400 480 404 C 320 408 160 404 0 404 C 0 392 0 384 0 376 Z"/>
  </g>
  <g id="region-c18" data-cell-id="c18" data-color-id="6" data-color-name="Lagoon Depth" data-color-hex="#1c6f8c">
    <title>Region c18 – Color #6 (Lagoon Depth)</title>
    <path d="M480 376 C 640 382 800 380 960 376 L960 404 C 800 410 640 412 480 404 C 480 394 480 386 480 376 Z"/>
  </g>
  <g id="region-c19" data-cell-id="c19" data-color-id="6" data-color-name="Lagoon Depth" data-color-hex="#1c6f8c">
    <title>Region c19 – Color #6 (Lagoon Depth)</title>
    <path d="M0 404 C 160 410 320 416 480 412 C 480 428 480 440 480 448 C 320 456 160 452 0 448 C 0 430 0 416 0 404 Z"/>
  </g>
  <g id="region-c20" data-cell-id="c20" data-color-id="6" data-color-name="Lagoon Depth" data-color-hex="#1c6f8c">
    <title>Region c20 – Color #6 (Lagoon Depth)</title>
    <path d="M480 412 C 640 416 800 410 960 404 L960 448 C 820 456 680 460 520 456 C 500 454 490 448 480 448 C 480 432 480 420 480 412 Z"/>
  </g>
  <g id="region-c21" data-cell-id="c21" data-color-id="7" data-color-name="Shore Left" data-color-hex="#4f7d5c">
    <title>Region c21 – Color #7 (Shore Left)</title>
    <path d="M0 448 C 120 454 220 458 300 462 C 280 500 220 540 140 566 C 80 584 30 592 0 592 C 0 544 0 496 0 448 Z"/>
  </g>
  <g id="region-c22" data-cell-id="c22" data-color-id="7" data-color-name="Shore Left" data-color-hex="#4f7d5c">
    <title>Region c22 – Color #7 (Shore Left)</title>
    <path d="M300 462 C 360 468 420 472 520 456 C 510 486 490 514 460 540 C 420 568 360 580 300 572 C 280 540 290 500 300 462 Z"/>
  </g>
  <g id="region-c23" data-cell-id="c23" data-color-id="8" data-color-name="Shore Middle" data-color-hex="#6b9358">
    <title>Region c23 – Color #8 (Shore Middle)</title>
    <path d="M520 456 C 640 462 720 464 780 460 C 788 474 792 498 796 528 C 786 580 768 584 752 588 C 700 600 656 598 604 588 C 566 580 534 564 518 546 C 506 532 506 520 520 510 C 508 496 512 476 520 456 Z"/>
  </g>
  <g id="region-c24" data-cell-id="c24" data-color-id="9" data-color-name="Capy Body" data-color-hex="#7d5735">
    <title>Region c24 – Color #9 (Capy Body)</title>
    <path d="M520 510 C 548 470 612 440 692 434 C 744 430 768 438 780 456 C 790 474 794 498 796 528 C 798 556 786 580 752 588 C 708 600 656 598 604 588 C 566 580 534 564 518 546 C 508 532 506 518 520 510 Z"/>
  </g>
  <g id="region-c25" data-cell-id="c25" data-color-id="10" data-color-name="Capy Head" data-color-hex="#5e3b24">
    <title>Region c25 – Color #10 (Capy Head)</title>
    <path d="M780 456 C 804 438 838 438 866 460 C 894 482 904 520 892 556 C 878 594 846 608 810 600 C 800 598 796 590 796 528 C 794 500 788 474 780 456 Z"/>
  </g>
  <g id="region-c26" data-cell-id="c26" data-color-id="11" data-color-name="Shore Right" data-color-hex="#3f5b3b">
    <title>Region c26 – Color #11 (Shore Right)</title>
    <path d="M780 460 C 840 456 900 454 960 452 L960 600 C 910 600 870 598 810 600 C 846 608 878 594 892 556 C 884 520 860 488 780 460 Z"/>
  </g>
</svg>
