<svg xmlns="http://www.w3.org/2000/svg" viewBox="0 0 960 600" width="960" height="600" role="img" aria-labelledby="title desc">
  <title id="title">Lush Green Forest Walk</title>
  <desc id="desc">Layered forest scene with tall trunks framing a winding path through a sunlit clearing.</desc>
  <g id="region-c01" data-cell-id="c1" data-color-id="11" data-color-name="Sky Mist" data-color-hex="#d7e9f8">
    <title>Region c1 – Color #11 (Sky Mist)</title>
    <path d="M0 0 H960 V150 Q 870 120 760 132 Q 660 144 560 134 Q 460 124 360 136 Q 240 148 140 134 Q 60 122 0 140 Z"/>
  </g>
  <g id="region-c02" data-cell-id="c2" data-color-id="3" data-color-name="Leaf Light" data-color-hex="#b6e480">
    <title>Region c2 – Color #3 (Leaf Light)</title>
    <path d="M0 140 Q 90 110 200 126 Q 280 138 320 160 L320 220 Q 220 210 150 208 Q 70 206 0 200 Z"/>
  </g>
  <g id="region-c03" data-cell-id="c3" data-color-id="3" data-color-name="Leaf Light" data-color-hex="#b6e480">
    <title>Region c3 – Color #3 (Leaf Light)</title>
    <path d="M320 160 Q 420 136 520 136 Q 620 136 660 158 L660 220 Q 560 210 470 212 Q 380 214 320 220 Z"/>
  </g>
  <g id="region-c04" data-cell-id="c4" data-color-id="3" data-color-name="Leaf Light" data-color-hex="#b6e480">
    <title>Region c4 – Color #3 (Leaf Light)</title>
    <path d="M660 158 Q 760 136 850 126 Q 930 118 960 140 L960 220 Q 860 210 780 208 Q 700 206 660 220 Z"/>
  </g>
  <g id="region-c05" data-cell-id="c5" data-color-id="1" data-color-name="Forest Deep" data-color-hex="#1f3f2c">
    <title>Region c5 – Color #1 (Forest Deep)</title>
    <path fill-rule="evenodd" d="M0 200 C 160 220 320 230 480 232 C 640 234 800 226 960 214 L960 320 C 820 338 680 346 540 342 C 380 338 220 328 0 308 Z M96 200 L176 200 L176 360 L96 360 Z M408 200 L488 200 L488 360 L408 360 Z M704 200 L784 200 L784 360 L704 360 Z"/>
  </g>
  <g id="region-c06" data-cell-id="c6" data-color-id="4" data-color-name="Leaf Mid" data-color-hex="#7fca63">
    <title>Region c6 – Color #4 (Leaf Mid)</title>
    <path fill-rule="evenodd" d="M0 308 C 140 326 280 336 420 340 C 460 342 480 340 520 334 L520 400 C 420 410 320 420 220 418 C 140 416 60 408 0 400 Z M96 300 L176 300 L176 420 L96 420 Z M408 300 L488 300 L488 420 L408 420 Z"/>
  </g>
  <g id="region-c07" data-cell-id="c7" data-color-id="4" data-color-name="Leaf Mid" data-color-hex="#7fca63">
    <title>Region c7 – Color #4 (Leaf Mid)</title>
    <path fill-rule="evenodd" d="M520 334 C 640 326 760 318 880 314 C 920 312 940 314 960 316 L960 400 C 840 412 720 420 600 416 C 540 414 500 410 460 404 L460 340 Z M704 300 L784 300 L784 420 L704 420 Z M408 300 L488 300 L488 420 L408 420 Z"/>
  </g>
  <g id="region-c08" data-cell-id="c8" data-color-id="10" data-color-name="Canopy Shadow" data-color-hex="#2f4d30">
    <title>Region c8 – Color #10 (Canopy Shadow)</title>
    <path fill-rule="evenodd" d="M0 400 C 120 416 240 430 360 438 C 420 442 460 446 520 452 L520 500 C 420 510 320 516 220 508 C 140 502 60 488 0 472 Z M96 392 L176 392 L176 520 L96 520 Z M408 392 L488 392 L488 520 L408 520 Z"/>
  </g>
  <g id="region-c09" data-cell-id="c9" data-color-id="10" data-color-name="Canopy Shadow" data-color-hex="#2f4d30">
    <title>Region c9 – Color #10 (Canopy Shadow)</title>
    <path fill-rule="evenodd" d="M520 452 C 600 446 680 438 760 430 C 860 420 940 412 960 410 L960 500 C 880 512 800 520 720 520 C 640 520 560 516 520 510 Z M704 392 L784 392 L784 520 L704 520 Z M408 392 L488 392 L488 520 L408 520 Z"/>
  </g>
  <g id="region-c10" data-cell-id="c10" data-color-id="9" data-color-name="Spring Green" data-color-hex="#9dd989">
    <title>Region c10 – Color #9 (Spring Green)</title>
    <path fill-rule="evenodd" d="M0 472 C 80 494 160 512 240 522 C 300 530 360 532 420 528 L420 560 C 340 576 260 584 180 580 C 120 578 60 568 0 552 Z M96 472 L176 472 L176 580 L96 580 Z"/>
  </g>
  <g id="region-c11" data-cell-id="c11" data-color-id="9" data-color-name="Spring Green" data-color-hex="#9dd989">
    <title>Region c11 – Color #9 (Spring Green)</title>
    <path fill-rule="evenodd" d="M540 528 C 620 520 700 504 780 486 C 860 468 920 450 960 440 L960 560 C 880 576 800 588 720 588 C 640 588 580 578 540 568 Z M704 472 L784 472 L784 580 L704 580 Z"/>
  </g>
  <g id="region-c12" data-cell-id="c12" data-color-id="2" data-color-name="Forest Floor" data-color-hex="#5f432c">
    <title>Region c12 – Color #2 (Forest Floor)</title>
    <path fill-rule="evenodd" d="M0 552 C 120 580 240 596 360 598 C 440 600 520 596 600 588 C 720 576 840 556 960 528 L960 600 H0 Z M288 512 C 340 488 400 470 460 466 C 520 462 580 470 630 488 C 680 506 716 530 732 558 C 700 584 656 600 600 608 C 520 620 440 618 360 604 C 300 594 240 574 200 546 Z M408 468 L488 468 L488 600 L408 600 Z"/>
  </g>
  <g id="region-c13" data-cell-id="c13" data-color-id="8" data-color-name="Sunlight" data-color-hex="#f4cf74">
    <title>Region c13 – Color #8 (Sunlight)</title>
    <path fill-rule="evenodd" d="M288 512 C 336 488 392 470 448 466 C 512 462 576 472 624 492 C 664 510 692 536 706 568 C 684 600 648 622 600 632 C 540 644 472 640 412 624 C 356 608 312 582 292 550 C 280 532 280 522 288 512 Z M408 468 L488 468 L488 600 L408 600 Z"/>
  </g>
  <g id="region-c14" data-cell-id="c14" data-color-id="3" data-color-name="Leaf Light" data-color-hex="#b6e480">
    <title>Region c14 – Color #3 (Leaf Light)</title>
    <path fill-rule="evenodd" d="M220 420 C 260 432 300 446 340 460 C 360 468 380 478 400 490 L400 540 C 360 532 320 520 280 506 C 220 486 160 464 100 440 Z M288 420 L360 420 L360 520 L288 520 Z"/>
  </g>
  <g id="region-c15" data-cell-id="c15" data-color-id="7" data-color-name="Bark Light" data-color-hex="#c88951">
    <title>Region c15 – Color #7 (Bark Light)</title>
    <path d="M96 200 C 100 280 104 360 106 440 C 108 520 110 600 112 600 L144 600 C 148 520 150 440 150 360 C 150 280 148 220 144 200 Z"/>
  </g>
  <g id="region-c16" data-cell-id="c16" data-color-id="5" data-color-name="Bark Dark" data-color-hex="#4c2f1f">
    <title>Region c16 – Color #5 (Bark Dark)</title>
    <path d="M144 200 C 150 280 154 360 156 440 C 158 520 158 600 158 600 L176 600 L176 200 Z"/>
  </g>
  <g id="region-c17" data-cell-id="c17" data-color-id="6" data-color-name="Bark Mid" data-color-hex="#7c5133">
    <title>Region c17 – Color #6 (Bark Mid)</title>
    <path d="M408 200 C 410 300 414 400 418 500 C 420 560 422 600 422 600 L452 600 C 456 520 458 440 460 360 C 460 280 458 220 454 200 Z"/>
  </g>
  <g id="region-c18" data-cell-id="c18" data-color-id="5" data-color-name="Bark Dark" data-color-hex="#4c2f1f">
    <title>Region c18 – Color #5 (Bark Dark)</title>
    <path d="M452 200 C 456 280 458 360 460 440 C 462 520 462 600 462 600 L488 600 L488 200 Z"/>
  </g>
  <g id="region-c19" data-cell-id="c19" data-color-id="7" data-color-name="Bark Light" data-color-hex="#c88951">
    <title>Region c19 – Color #7 (Bark Light)</title>
    <path d="M704 200 C 708 288 712 376 716 464 C 718 528 720 600 722 600 L752 600 C 756 520 758 440 758 360 C 758 280 756 220 752 200 Z"/>
  </g>
  <g id="region-c20" data-cell-id="c20" data-color-id="5" data-color-name="Bark Dark" data-color-hex="#4c2f1f">
    <title>Region c20 – Color #5 (Bark Dark)</title>
    <path d="M752 200 C 756 280 758 360 760 440 C 762 520 762 600 762 600 L784 600 L784 200 Z"/>
  </g>
</svg>
